<svg id="visual" viewBox="0 0 960 540" width="960" height="540" xmlns="http://www.w3.org/2000/svg" xmlns:xlink="http://www.w3.org/1999/xlink" version="1.1"><rect x="0" y="0" width="960" height="540" fill="#6C63FF"></rect><path d="M0 434L22.8 431.8C45.7 429.7 91.3 425.3 137 426.3C182.7 427.3 228.3 433.7 274 434C319.7 434.3 365.3 428.7 411.2 425.8C457 423 503 423 548.8 410C594.7 397 640.3 371 686 362C731.7 353 777.3 361 823 366.5C868.7 372 914.3 375 937.2 376.5L960 378L960 541L937.2 541C914.3 541 868.7 541 823 541C777.3 541 731.7 541 686 541C640.3 541 594.7 541 548.8 541C503 541 457 541 411.2 541C365.3 541 319.7 541 274 541C228.3 541 182.7 541 137 541C91.3 541 45.7 541 22.8 541L0 541Z" fill="#6C63FF" stroke-linecap="round" stroke-linejoin="miter"></path></svg>